:version 1.10
:name ASF
:units
  mass 1
  length 1
  angle deg
:documentation
  ASF file generated by Kaydara
:root
  axis xyz
  order  tx ty tz rx ry rz
  position 0 0 0
  orientation 0 0 0
:bonedata
  begin
    id 1
    name RightUpLegDummy
    direction -1 2.30186e-007 8.31532e-007
    length 4.04083
    axis 0 0 0 xyz
  end
  begin
    id 2
    name RightUpLeg
    direction -0.000919234 -0.999985 0.00544864
    length 17.4221
    axis -3.80308 -0.00076134 -0.0523649 xyz
    dof rx ry rz
  end
  begin
    id 3
    name RightLeg
    direction -0.000919271 -0.999984 -0.00555045
    length 17.1239
    axis 4.00314 0.0181274 -0.183583 xyz
    dof rx ry rz
  end
  begin
    id 4
    name RightFoot
    direction -2.57843e-005 -4.04509e-007 1
    length 6.72091
    axis 8.18909e-005 -0.122003 -0.403008 xyz
    dof rx ry rz
  end
  begin
    id 5
    name RightToes
    direction 0.00116825 -0.014069 0.9999
    length 3.85082
    axis 0.000514414 0.540638 -0.356797 xyz
    dof rx ry rz
  end
  begin
    id 6
    name SpineDummy
    direction 0.0168869 0.966876 -0.254689
    length 6.99894
    axis 0 0 0 xyz
  end
  begin
    id 7
    name Spine
    direction -0.0132008 0.999903 0.00446247
    length 11.1999
    axis -0.00148109 0.00725429 0.756411 xyz
    dof rx ry rz
  end
  begin
    id 8
    name Spine1
    direction 0 0 0
    length 0
    axis -0.000934958 0.0245693 1.46543 xyz
    dof rx ry rz
  end
  begin
    id 9
    name HEadDummy
    direction -0.0255732 0.999672 0.00128215
    length 3.43865
    axis -0.000934958 0.0245693 1.46543 xyz
  end
  begin
    id 10
    name HEad
    direction -0.0472656 0.980052 0.19304
    length 5.12695
    axis -0.000934954 0.0245693 1.46543 xyz
    dof rx ry rz
  end
  begin
    id 11
    name LeftShoulder1Dummy
    direction 0.953098 0.301717 -0.023914
    length 3.68488
    axis -0.000934958 0.0245693 1.46543 xyz
  end
  begin
    id 12
    name LeftShoulder1
    direction 0.962466 0.271167 0.0112566
    length 3.13809
    axis -0.000934958 0.0245693 1.46543 xyz
    dof rx ry rz
  end
  begin
    id 13
    name LeftArm
    direction 0.999943 0.00455037 -0.00961766
    length 11.3419
    axis -23.1648 0.685459 1.22814 xyz
    dof rx ry rz
  end
  begin
    id 14
    name LeftForeArm
    direction 0.999332 0.0131969 0.0340885
    length 8.70632
    axis -9.90633 0.618216 0.0826942 xyz
    dof rx ry rz
  end
  begin
    id 15
    name LeftHand
    direction 0.994373 -0.0366703 0.0993905
    length 5.32135
    axis 0.00675269 0.680415 0.445699 xyz
    dof rx ry rz
  end
  begin
    id 16
    name RightShoulderDummy
    direction -0.967298 0.252589 -0.0230903
    length 3.68488
    axis -0.000934958 0.0245693 1.46543 xyz
  end
  begin
    id 17
    name RightShoulder
    direction -0.975062 0.221602 0.0120823
    length 3.13809
    axis 0.216257 0.0246515 1.45863 xyz
    dof rx ry rz
  end
  begin
    id 18
    name RightArm
    direction -0.99886 -0.00851186 -0.0469687
    length 10.3947
    axis -23.196 0.23503 -0.532632 xyz
    dof rx ry rz
  end
  begin
    id 19
    name RightForeArm
    direction -0.99909 0.00114866 0.0426317
    length 8.68355
    axis -9.91764 -0.134943 0.610517 xyz
    dof rx ry rz
  end
  begin
    id 20
    name RightHand
    direction -0.992888 -0.0489538 0.10852
    length 5.28593
    axis -0.00275396 -0.197403 0.246414 xyz
    dof rx ry rz
  end
  begin
    id 21
    name LeftUpLegDummy
    direction 1 -2.30186e-007 -8.31532e-007
    length 4.04083
    axis 0 0 0 xyz
  end
  begin
    id 22
    name LeftUpLeg
    direction -0.000920097 -1 2.79241e-006
    length 17.4221
    axis -3.48782 0.00143434 -0.0532288 xyz
    dof rx ry rz
  end
  begin
    id 23
    name LeftLeg
    direction -0.000920097 -1 2.7912e-006
    length 17.1239
    axis 3.68162 -0.00806512 -0.0529896 xyz
    dof rx ry rz
  end
  begin
    id 24
    name LeftFoot
    direction -2.57845e-005 -3.987e-007 1
    length 6.72091
    axis 3.02372e-005 -0.00147829 -0.214229 xyz
    dof rx ry rz
  end
  begin
    id 25
    name LeftToes
    direction 0.00813577 -0.00488255 0.999955
    length 3.85048
    axis 3.89895e-005 -0.0014783 -0.214229 xyz
    dof rx ry rz
  end
:hierarchy
  begin
    root RightUpLegDummy SpineDummy LeftUpLegDummy
    RightUpLegDummy RightUpLeg
    RightUpLeg RightLeg
    RightLeg RightFoot
    RightFoot RightToes
    SpineDummy Spine
    Spine Spine1
    Spine1 HEadDummy LeftShoulder1Dummy RightShoulderDummy
    HEadDummy HEad
    LeftShoulder1Dummy LeftShoulder1
    LeftShoulder1 LeftArm
    LeftArm LeftForeArm
    LeftForeArm LeftHand
    RightShoulderDummy RightShoulder
    RightShoulder RightArm
    RightArm RightForeArm
    RightForeArm RightHand
    LeftUpLegDummy LeftUpLeg
    LeftUpLeg LeftLeg
    LeftLeg LeftFoot
    LeftFoot LeftToes
  end

:SAMPLES-PER-SECOND 30
:FULLY-SPECIFIED
:DEGREES
32
root  -12.1507 34.588 -18.3166 -169.948 1.05353 179.723
RightUpLeg  -7.86533 -13.3473 -0.130818
RightLeg  5.46552 -1.67421 -0.0509323
RightFoot  2.53658 0.0126753 0.0719937
RightToes  -22.519 -0.0949938 -0.194822
Spine  -3.22557 0.0708706 0.210163
Spine1  -6.53902 0.259119 0.985835
HEad  -67.9312 2.48954 5.83107
LeftShoulder1  -1.94126e-019 -3.10601e-018 -2.51263e-017
LeftArm  -13.6722 26.3533 -81.7341
LeftForeArm  32.0209 -16.0115 -2.59032
LeftHand  -0.361638 -0.742944 7.17521
RightShoulder  -4.96962e-017 0 -2.36833e-017
RightArm  -28.6302 -24.2725 76.7206
RightForeArm  56.9743 13.5511 1.32056
RightHand  -0.339141 -1.2855 -9.32956
LeftUpLeg  -8.21271 2.83593 0.817282
LeftLeg  5.93827 13.5562 0.528353
LeftFoot  3.57121 -0.0211945 0.986747
LeftToes  -17.9439 1.48347e-006 1.01831e-007
33
root  -12.1544 34.5831 -18.3267 -169.943 1.0518 179.729
RightUpLeg  -7.88067 -13.4051 -0.132912
RightLeg  5.524 -1.62844 -0.0511723
RightFoot  2.47875 0.0124408 0.0753453
RightToes  -22.4641 -0.0949938 -0.194822
Spine  -3.24193 0.0695687 0.216665
Spine1  -6.57197 0.255742 0.99736
HEad  -67.6749 2.34477 5.8942
LeftShoulder1  -1.94126e-019 -3.10601e-018 -2.51263e-017
LeftArm  -13.7644 26.3871 -81.7558
LeftForeArm  31.9645 -15.8545 -2.5664
LeftHand  -0.360912 -0.699975 7.19935
RightShoulder  -4.96962e-017 0 -2.36833e-017
RightArm  -28.6785 -24.3301 76.6818
RightForeArm  57.0147 13.5512 1.3213
RightHand  -0.34002 -1.23251 -9.30029
LeftUpLeg  -8.2289 2.93535 0.814356
LeftLeg  5.99759 13.4648 0.538676
LeftFoot  3.50291 -0.0197335 0.964038
LeftToes  -17.9005 1.48347e-006 1.01831e-007
34
root  -12.1607 34.5838 -18.3338 -170.005 1.04819 179.759
RightUpLeg  -8.11012 -13.8601 -0.0990123
RightLeg  6.11582 -1.232 -0.0511735
RightFoot  2.18422 0.0109058 0.0972785
RightToes  -22.3488 -0.0949938 -0.194822
Spine  -3.2265 0.067117 0.234033
Spine1  -6.54151 0.250746 1.03023
HEad  -67.6202 2.33857 5.9107
LeftShoulder1  -1.94126e-019 -3.10601e-018 -2.51263e-017
LeftArm  -13.8194 26.4177 -81.7924
LeftForeArm  32.0198 -15.7773 -2.55026
LeftHand  -0.362244 -0.714817 7.16034
RightShoulder  -4.96962e-017 0 -2.36833e-017
RightArm  -28.6216 -24.3696 76.6567
RightForeArm  56.9847 13.5869 1.31294
RightHand  -0.339701 -1.20669 -9.31273
LeftUpLeg  -8.18499 2.94089 0.83655
LeftLeg  6.05736 13.4609 0.552452
LeftFoot  3.45985 -0.019038 0.953229
LeftToes  -17.8614 1.48347e-006 1.01831e-007
35
root  -12.1636 34.5833 -18.3339 -170.038 0.998856 179.755
RightUpLeg  -8.09615 -13.8779 -0.111442
RightLeg  6.17253 -1.25985 -0.0535998
RightFoot  2.15696 0.0109283 0.0969574
RightToes  -22.3405 -0.0949938 -0.194822
Spine  -3.20727 0.0579432 0.237268
Spine1  -6.50307 0.231716 1.03813
HEad  -67.6215 2.29744 5.90436
LeftShoulder1  -1.94126e-019 -3.10601e-018 -2.51263e-017
LeftArm  -13.7924 26.4408 -81.8101
LeftForeArm  32.0121 -15.7759 -2.54816
LeftHand  -0.363625 -0.701893 7.13276
RightShoulder  -4.96962e-017 0 -2.36833e-017
RightArm  -28.7049 -24.3861 76.6788
RightForeArm  56.9791 13.6067 1.30827
RightHand  -0.339247 -1.18412 -9.32988
LeftUpLeg  -8.16256 2.93054 0.834077
LeftLeg  6.06572 13.4269 0.553021
LeftFoot  3.45473 -0.0188131 0.949733
LeftToes  -17.8498 1.48347e-006 1.01831e-007
36
root  -12.1612 34.5823 -18.3327 -169.992 0.981064 179.724
RightUpLeg  -7.86276 -13.3618 -0.156855
RightLeg  5.62135 -1.72891 -0.0573222
RightFoot  2.43862 0.0126153 0.0728513
RightToes  -22.5181 -0.0949938 -0.194822
Spine  -3.21734 0.0570352 0.229906
Spine1  -6.52257 0.222619 1.02567
HEad  -67.6056 2.30546 5.83628
LeftShoulder1  -1.94126e-019 -3.10601e-018 -2.51263e-017
LeftArm  -13.778 26.4604 -81.8033
LeftForeArm  32.0443 -15.7463 -2.54305
LeftHand  -0.364725 -0.739113 7.15656
RightShoulder  -4.96962e-017 0 -2.36833e-017
RightArm  -28.7174 -24.4013 76.6997
RightForeArm  56.9723 13.612 1.30701
RightHand  -0.338674 -1.23033 -9.34822
LeftUpLeg  -8.20756 2.86978 0.807146
LeftLeg  6.04393 13.4724 0.549784
LeftFoot  3.4951 -0.0196456 0.962673
LeftToes  -17.9253 1.48347e-006 1.01831e-007
